<svg width="21" height="21" viewBox="0 0 21 21" fill="none" xmlns="http://www.w3.org/2000/svg">
<path d="M9.80729 13.0439L4.76562 10.0752V4.86686C4.76562 2.56478 6.66667 0.700195 9.01146 0.700195C10.4667 0.700195 11.751 1.41895 12.5167 2.51374" stroke="black" stroke-width="1.4" stroke-linecap="round" stroke-linejoin="round"/>
<path d="M7.57422 17.5539C7.96575 18.1391 8.49588 18.6184 9.11742 18.9491C9.73897 19.2799 10.4326 19.4519 11.1367 19.4497C13.4805 19.4497 15.3826 17.5852 15.3826 15.2831V10.0747L10.2409 7.05078" stroke="black" stroke-width="1.4" stroke-linecap="round" stroke-linejoin="round"/>
<path d="M7.41797 11.6378V5.56491L12.0138 2.96074C14.0451 1.8097 16.6419 2.49199 17.8148 4.4847C18.174 5.09219 18.3701 5.78223 18.384 6.48783C18.3978 7.19344 18.2291 7.89064 17.894 8.51178" stroke="black" stroke-width="1.4" stroke-linecap="round" stroke-linejoin="round"/>
<path d="M2.25296 11.6371C1.91776 12.2582 1.7488 12.9553 1.76249 13.6609C1.77618 14.3665 1.97205 15.0566 2.33109 15.6642C3.504 17.6569 6.10192 18.3392 8.13317 17.1892L12.729 14.585L12.829 8.75586" stroke="black" stroke-width="1.4" stroke-linecap="round" stroke-linejoin="round"/>
<path d="M15.381 15.9395C16.091 15.912 16.7829 15.7074 17.3936 15.3442C18.0044 14.9811 18.5146 14.471 18.8779 13.8603C20.0497 11.8676 19.3539 9.31862 17.3237 8.16862L12.7268 5.56445L7.45703 8.43424" stroke="black" stroke-width="1.4" stroke-linecap="round" stroke-linejoin="round"/>
<path d="M4.76697 4.21094C4.05677 4.23824 3.36469 4.44277 2.75374 4.80592C2.1428 5.16906 1.63241 5.67928 1.26905 6.2901C0.0961378 8.28281 0.791971 10.8318 2.82322 11.9818L7.4201 14.5859L12.6784 11.7214" stroke="black" stroke-width="1.4" stroke-linecap="round" stroke-linejoin="round"/>
</svg>
